<svg width="53" height="54" viewBox="0 0 53 54" fill="none" xmlns="http://www.w3.org/2000/svg">
<circle cx="26.5" cy="27.37" r="26.46" fill="#FFF1F0"/>
<path d="M16.1667 27.4599C16.1667 28.8965 16.7374 30.2742 17.7533 31.29C18.7691 32.3059 20.1468 32.8765 21.5834 32.8765C23.5851 32.9511 25.4992 33.7167 27.0001 35.0432C28.501 33.7167 30.4151 32.9511 32.4167 32.8765C33.8533 32.8765 35.2311 32.3059 36.2469 31.29C37.2627 30.2742 37.8334 28.8965 37.8334 27.4599V22.0432H32.4167C30.4151 22.1178 28.501 22.8834 27.0001 24.2099C25.4992 22.8834 23.5851 22.1178 21.5834 22.0432H16.1667V27.4599Z" stroke="#E6372B" stroke-width="1.625" stroke-linecap="round" stroke-linejoin="round"/>
<path d="M20.5001 26.3765C22.1251 26.3765 23.7501 26.9182 23.7501 28.5432C21.5834 28.5432 20.5001 28.5432 20.5001 26.3765Z" stroke="#E6372B" stroke-width="1.625" stroke-linecap="round" stroke-linejoin="round"/>
<path d="M33.5001 26.3765C31.8751 26.3765 30.2501 26.9182 30.2501 28.5432C32.4167 28.5432 33.5001 28.5432 33.5001 26.3765Z" stroke="#E6372B" stroke-width="1.625" stroke-linecap="round" stroke-linejoin="round"/>
</svg>
