<svg width="25" height="26" viewBox="0 0 25 26" fill="none" xmlns="http://www.w3.org/2000/svg">
<path d="M0 12.84C0 5.93641 5.59644 0.339966 12.5 0.339966C19.4036 0.339966 25 5.93641 25 12.84C25 19.7435 19.4036 25.34 12.5 25.34C5.59644 25.34 0 19.7435 0 12.84Z" fill="#E6372B"/>
<g clip-path="url(#clip0_1_717)">
<path d="M14.2356 10.8225L10.7634 14.5841M10.7634 10.8225L14.2356 14.5841M18.0551 13.4556C18.0551 17.2172 15.6245 19.098 12.7356 20.1888C12.5844 20.2444 12.42 20.2417 12.2704 20.1813C9.37452 19.098 6.94397 17.2172 6.94397 13.4556V8.18941C6.94397 7.98988 7.01713 7.79853 7.14737 7.65744C7.2776 7.51635 7.45424 7.43709 7.63841 7.43709C9.0273 7.43709 10.7634 6.53431 11.9717 5.3908C12.1189 5.25463 12.306 5.17981 12.4995 5.17981C12.693 5.17981 12.8802 5.25463 13.0273 5.3908C14.2426 6.54184 15.9717 7.43709 17.3606 7.43709C17.5448 7.43709 17.7214 7.51635 17.8517 7.65744C17.9819 7.79853 18.0551 7.98988 18.0551 8.18941V13.4556Z" stroke="#FFF8F7" stroke-width="1.46" stroke-linecap="round" stroke-linejoin="round"/>
</g>
<defs>
<clipPath id="clip0_1_717">
<rect width="17.5" height="17.5" fill="white" transform="translate(3.75 4.08997)"/>
</clipPath>
</defs>
</svg>
